<svg width="1500" height="400" viewBox="0 0 1500 400" fill="none" xmlns="http://www.w3.org/2000/svg">

<defs>

<linearGradient id="bg" x1="0%" y1="0%" x2="100%" y2="100%">
  <stop offset="0%" stop-color="#0D1117"/>
  <stop offset="100%" stop-color="#111827"/>
</linearGradient>

<linearGradient id="title" x1="0%" y1="0%" x2="100%" y2="0%">
  <stop offset="0%" stop-color="#8BFFB5"/>
  <stop offset="100%" stop-color="#22C55E"/>
</linearGradient>

<linearGradient id="wave" x1="0%" y1="0%" x2="100%" y2="0%">
  <stop offset="0%" stop-color="#22C55E" stop-opacity="0.10"/>
  <stop offset="100%" stop-color="#22C55E" stop-opacity="0.45"/>
</linearGradient>

</defs>

<!-- Background -->
<rect width="1500" height="400" fill="url(#bg)"/>

<!-- Decorative circles -->
<circle cx="1240" cy="80" r="3" fill="#22C55E"/>
<circle cx="1320" cy="130" r="2" fill="#86EFAC"/>
<circle cx="1400" cy="70" r="4" fill="#16A34A"/>
<circle cx="1180" cy="180" r="2" fill="#4ADE80"/>

<!-- Name -->
<text
x="80"
y="145"
fill="url(#title)"
font-size="68"
font-weight="700"
font-family="Segoe UI, Arial, sans-serif">

Ranga Arun Kumar

</text>

<!-- Role -->
<text
x="82"
y="195"
fill="#F3F4F6"
font-size="28"
font-family="Segoe UI, Arial, sans-serif">

Software Engineer • Full Stack Developer • Java Developer

</text>

<!-- Skills -->
<text
x="82"
y="235"
fill="#86EFAC"
font-size="22"
font-family="Segoe UI, Arial, sans-serif">

Data Analytics • Cybersecurity • AI/ML • Data Structures & Algorithms

</text>

<!-- Divider -->
<line
x1="82"
y1="255"
x2="760"
y2="255"
stroke="#22C55E"
stroke-width="2"
opacity=".5"/>

<!-- Quote -->
<text
x="82"
y="295"
fill="#9CA3AF"
font-size="20"
font-family="Segoe UI, Arial, sans-serif">

Building scalable software with clean architecture and continuous learning.

</text>

<!-- Right Side Skill Cards -->

<rect x="1000" y="90" width="100" height="42" rx="8" fill="#161B22" stroke="#22C55E"/>
<text x="1032" y="117" fill="#86EFAC" font-size="18" font-family="Segoe UI">Java</text>

<rect x="1120" y="90" width="110" height="42" rx="8" fill="#161B22" stroke="#22C55E"/>
<text x="1147" y="117" fill="#86EFAC" font-size="18" font-family="Segoe UI">Python</text>

<rect x="1250" y="90" width="100" height="42" rx="8" fill="#161B22" stroke="#22C55E"/>
<text x="1278" y="117" fill="#86EFAC" font-size="18" font-family="Segoe UI">React</text>

<rect x="1370" y="90" width="90" height="42" rx="8" fill="#161B22" stroke="#22C55E"/>
<text x="1393" y="117" fill="#86EFAC" font-size="18" font-family="Segoe UI">SQL</text>

<!-- Bottom Wave -->
<path
d="M0 340 C250 300 500 380 750 340 C1000 300 1250 370 1500 330 L1500 400 L0 400 Z"
fill="url(#wave)"/>

</svg>
